<svg xmlns="http://www.w3.org/2000/svg" viewBox="0 0 800 500" width="800" height="500" role="img" aria-label="RS Travel Sedan Cab">
  <defs>
    <linearGradient id="bg" x1="0" y1="0" x2="0" y2="1">
      <stop offset="0" stop-color="#0f172a"/>
      <stop offset="1" stop-color="#1e293b"/>
    </linearGradient>
    <radialGradient id="glow" cx="0.5" cy="0.35" r="0.7">
      <stop offset="0" stop-color="#1a73e8" stop-opacity="0.4"/>
      <stop offset="1" stop-color="#1a73e8" stop-opacity="0"/>
    </radialGradient>
    <linearGradient id="car" x1="0" y1="0" x2="0" y2="1">
      <stop offset="0" stop-color="#7dd3fc"/>
      <stop offset="0.5" stop-color="#38bdf8"/>
      <stop offset="1" stop-color="#1d4ed8"/>
    </linearGradient>
    <linearGradient id="win" x1="0" y1="0" x2="0" y2="1">
      <stop offset="0" stop-color="#e0f2fe"/>
      <stop offset="1" stop-color="#7dd3fc"/>
    </linearGradient>
  </defs>
  <rect width="800" height="500" fill="url(#bg)"/>
  <rect width="800" height="500" fill="url(#glow)"/>
  <g opacity="0.06" stroke="#94a3b8" stroke-width="1">
    <line x1="0" y1="100" x2="800" y2="100"/>
    <line x1="0" y1="200" x2="800" y2="200"/>
    <line x1="0" y1="300" x2="800" y2="300"/>
    <line x1="0" y1="400" x2="800" y2="400"/>
    <line x1="200" y1="0" x2="200" y2="500"/>
    <line x1="400" y1="0" x2="400" y2="500"/>
    <line x1="600" y1="0" x2="600" y2="500"/>
  </g>
  <ellipse cx="400" cy="432" rx="300" ry="18" fill="#000" opacity="0.45"/>
  <g>
    <path d="M148 382 L130 358 Q122 332 158 325 L248 302 Q300 288 352 284 L470 276 Q542 273 592 287 Q644 301 658 322 Q670 344 660 362 L654 378 Q650 387 640 387 L168 387 Q154 387 148 382 Z" fill="url(#car)"/>
    <path d="M308 292 L342 268 Q372 254 430 254 L520 260 Q560 266 574 294 L308 294 Z" fill="url(#win)" opacity="0.9"/>
    <path d="M298 292 L320 274 L360 256 Q336 262 308 280 Z" fill="url(#win)" opacity="0.55"/>
    <circle cx="230" cy="388" r="46" fill="#0f172a"/>
    <circle cx="230" cy="388" r="22" fill="#64748b"/>
    <circle cx="230" cy="388" r="10" fill="#cbd5e1"/>
    <circle cx="560" cy="388" r="46" fill="#0f172a"/>
    <circle cx="560" cy="388" r="22" fill="#64748b"/>
    <circle cx="560" cy="388" r="10" fill="#cbd5e1"/>
    <rect x="478" y="286" width="16" height="12" rx="3" fill="#e2e8f0" opacity="0.85"/>
    <rect x="500" y="288" width="16" height="12" rx="3" fill="#e2e8f0" opacity="0.85"/>
  </g>
  <text x="400" y="468" text-anchor="middle" font-family="Arial, Helvetica, sans-serif" font-size="20" font-weight="800" fill="#f59e0b" letter-spacing="6">RS TRAVEL</text>
</svg>
